# xmcd CD database file
#
# Track frame offsets:
#	150
#	25933
#	52376
#	74330
#	98418
#	121324
#	147112
#	156804
#	175924
#	184948
#	202967
#	220426
#	235393
#	264743
#	272881
#	294793
#
# Disc length: 4265 seconds
#
# Revision: 0
# Processed by: cddbd v1.5.2PL0 Copyright (c) Steve Scherf et al.
# Submitted via: CDex 1.70beta2
#
DISCID=f410a710
DTITLE=Miles Davis - 1986 -1991 The Warner Years (Disc-2)
DYEAR=2011
DGENRE=Jazz
TTITLE0=Big Time
TTITLE1=Hannibal
TTITLE2=Jo-Jo
TTITLE3=Amandla
TTITLE4=Jilli
TTITLE5=Mr. Pastorius
TTITLE6=The Arrival
TTITLE7=Concert On The Runway
TTITLE8=The Departure
TTITLE9=Trumpet Cleaning
TTITLE10=The Dream
TTITLE11=Paris Walking II
TTITLE12=The Jam Session
TTITLE13=In A Silent Way
TTITLE14=Intruder
TTITLE15=New Blues
EXTD=YEAR: 2011
EXTT0=
EXTT1=
EXTT2=
EXTT3=
EXTT4=
EXTT5=
EXTT6=
EXTT7=
EXTT8=
EXTT9=
EXTT10=
EXTT11=
EXTT12=
EXTT13=
EXTT14=
EXTT15=
PLAYORDER=
